Formula One 2011 Season

Race 5: Spanish Grand Prix, Curcuit De Catalunya

Record Source: BBC One Red Button Stream
Original Format: MPEG TS Stream
Date: Sunday 22nd May 2011
Time: 15:15 to 16:15

After several requests, I have now opted for the Matroska container format (mkv) for all sessions.

***PLEASE NOTE*** For those who are unfamiliar with the BBC F1 FOrum, This is the POST RACE Anaylsis of the Turkish Grand Prix. 
DO NOT WATCH THIS UNTIL YOU KNOW THE RESULT OF THE RACE!!

Spain Grand Prix F1 Forum

Jake Humpfries ,Martin Brundle & Eddie Jordan present POST RACE coverage of the BBC Red Button F1 Forum for the 4th Race meeting
of the 2011 Formula One season, The Turkish Grand Prix, from the Istanbul Park Curcuit.

Filename:			 : F1 2011 Spain BBC F1 Forum
Format                           : Matroska
File size                        : 895 MiB
Duration                         : 1h 5mn
Overall bit rate                 : 1 901 Kbps
Writing application              : HandBrake 0.9.5
Writing library                  : libmkv 0.6.4.1

Video
ID                               : 1
Format                           : AVC
Format/Info                      : Advanced Video Codec
Format profile                   : Main@L3.0
Format settings, CABAC           : Yes
Format settings, ReFrames        : 4 frames
Muxing mode                      : Container profile=Unknown@3.0
Codec ID                         : V_MPEG4/ISO/AVC
Duration                         : 1h 5mn
Bit rate                         : 1 758 Kbps
Width                            : 544 pixels
Height                           : 576 pixels
Display aspect ratio             : 16:9
Frame rate mode                  : Variable
Frame rate                       : 25.000 fps
Color space                      : YUV
Chroma subsampling               : 4:2:0
Bit depth                        : 8 bits
Scan type                        : Progressive
Bits/(Pixel*Frame)               : 0.224
Stream size                      : 817 MiB (91%)
Writing library                  : x264 core 112

Color primaries                  : BT.601-6 525, BT.1358 525, BT.1700 NTSC, SMPTE 170M
Transfer characteristics         : BT.709-5, BT.1361
Matrix coefficients              : BT.601-6 525, BT.1358 525, BT.1700 NTSC, SMPTE 170M
Audio
ID                               : 2
Format                           : AC-3
Format/Info                      : Audio Coding 3
Mode extension                   : CM (complete main)
Codec ID                         : A_AC3
Duration                         : 1h 5mn
Bit rate mode                    : Constant
Bit rate                         : 128 Kbps
Channel(s)                       : 2 channels
Channel positions                : Front: L R
Sampling rate                    : 48.0 KHz
Bit depth                        : 16 bits
Stream size                      : 60.3 MiB (7%)
Language                         : English





Enjoy

The BlackKnight



